<svg aria-hidden="true" style="position: absolute; width: 0; height: 0; overflow: hidden;" version="1.1" xmlns="http://www.w3.org/2000/svg" xmlns:xlink="http://www.w3.org/1999/xlink">
<defs>
<symbol id="icon-antarctica" viewBox="0 0 120 32">
<path d="M19.374 26.898c-0.163 0.063-0.336 0.097-0.511 0.1l-1.932 0.060h-1.662c-1.364 1.514-2.992 2.769-4.805 3.706-1.292 0.639-2.722 0.953-4.164 0.917-0.887-0.023-1.765-0.185-2.603-0.478-0.762-0.261-1.466-0.667-2.072-1.195-0.557-0.477-0.998-1.073-1.291-1.743-0.293-0.691-0.397-1.447-0.3-2.192 0.066-1.111 0.46-2.178 1.131-3.068 0.528-0.656 1.218-1.164 2.002-1.474 0.712-0.265 1.474-0.374 2.232-0.319 0.595 0.034 1.183 0.141 1.752 0.319 0.356 0.148 0.654 0.407 0.851 0.737 0.159 0.26 0.226 0.565 0.19 0.867-0.023 0.13-0.073 0.255-0.145 0.366s-0.166 0.207-0.276 0.282c-0.137 0.074-0.29 0.113-0.445 0.113s-0.309-0.039-0.445-0.113c-0.52-0.243-1.112-0.286-1.662-0.12-0.471 0.157-0.887 0.444-1.201 0.827-0.308 0.395-0.511 0.861-0.591 1.355-0.1 0.495-0.062 1.009 0.11 1.484 0.192 0.497 0.544 0.918 1.001 1.195 0.605 0.353 1.302 0.519 2.002 0.478 1.582-0.107 3.078-0.754 4.234-1.833-0.581 0-0.941-0.179-1.081-0.438-0.075-0.132-0.115-0.282-0.115-0.433s0.040-0.301 0.115-0.433c0.206-0.357 0.49-0.663 0.831-0.897 0.372-0.268 0.813-0.427 1.271-0.458h0.731c0.31 0 0.661 0 1.061 0 1.508-1.696 2.905-3.487 4.184-5.36 1.442-2.092 2.843-4.204 4.254-6.366s2.703-4.294 4.004-6.386 2.613-3.985 3.844-5.619c0.281-0.379 0.696-0.639 1.161-0.727 0.402-0.093 0.823-0.054 1.201 0.11 0.17 0.080 0.321 0.196 0.444 0.338s0.213 0.309 0.267 0.489c0.056 0.224 0.060 0.457 0.014 0.683s-0.144 0.438-0.284 0.622c-1.051 1.624-2.082 3.407-3.113 5.36s-2.002 3.925-2.853 5.908-1.682 3.905-2.322 5.748c-0.601 1.601-1.099 3.238-1.491 4.901-0.296 1.121-0.431 2.278-0.4 3.437 0.070 0.877 0.39 1.305 1.001 1.305 0.274-0.010 0.544-0.064 0.801-0.159 0.343-0.119 0.678-0.262 1.001-0.428 0.348-0.193 0.682-0.41 1.001-0.648 0.329-0.232 0.637-0.492 0.921-0.777l1.291-1.305c0.376-0.403 0.73-0.825 1.061-1.265 0.079-0.128 0.189-0.235 0.32-0.31s0.279-0.116 0.43-0.119c0.311-0.024 0.623 0.038 0.901 0.179 0.261 0.118 0.473 0.322 0.601 0.578 0.058 0.128 0.076 0.271 0.051 0.41s-0.092 0.267-0.191 0.367l-1.241 1.484c-0.521 0.628-1.181 1.335-2.002 2.132-0.52 0.488-1.001 0.907-1.421 1.235-0.4 0.321-0.832 0.598-1.291 0.827-0.422 0.21-0.869 0.364-1.331 0.458-0.518 0.096-1.044 0.143-1.572 0.139-0.538 0.046-1.080-0.054-1.566-0.289s-0.9-0.596-1.197-1.046c-0.578-1.077-0.818-2.302-0.691-3.517zM19.694 24.377c0.465-2.015 1.136-3.978 2.002-5.858-0.731 1.156-1.451 2.232-2.142 3.208s-1.351 1.873-2.002 2.7c0.43 0 0.831-0.050 1.201-0.050h0.941zM32.447 18.201c0.076-0.145 0.188-0.269 0.324-0.361s0.293-0.149 0.457-0.167c0.386-0.085 0.785-0.085 1.171 0 0.357 0.075 0.683 0.252 0.941 0.508 0.121 0.117 0.2 0.27 0.225 0.435s-0.005 0.335-0.085 0.482l-0.27 0.548 0.18-0.14c0.653-0.604 1.4-1.099 2.212-1.464 0.494-0.228 1.039-0.324 1.582-0.279 0.424 0.053 0.817 0.25 1.111 0.558 0.311 0.305 0.566 0.663 0.751 1.056 0.272 0.654 0.272 1.389 0 2.042-0.32 0.877-0.712 1.727-1.171 2.54-0.34 0.678-0.691 1.305-1.061 1.903s-0.731 1.215-1.101 1.853c-0.142 0.196-0.228 0.427-0.25 0.667 0 0.11 0.090 0.14 0.23 0.11 0.168-0.047 0.329-0.114 0.48-0.199 0.174-0.106 0.341-0.222 0.501-0.349 0.71-0.545 1.38-1.141 2.002-1.783 0.566-0.565 1.098-1.164 1.592-1.793 0.080-0.136 0.194-0.25 0.331-0.33s0.292-0.124 0.45-0.128c0.301-0.024 0.604 0.038 0.871 0.179 0.251 0.125 0.455 0.328 0.581 0.578 0.059 0.125 0.081 0.264 0.065 0.401s-0.070 0.267-0.155 0.376c-0.16 0.179-0.36 0.448-0.621 0.797s-0.561 0.727-0.901 1.126c-0.34 0.399-0.711 0.807-1.131 1.235s-0.831 0.827-1.261 1.195c-0.658 0.617-1.412 1.125-2.232 1.504-0.548 0.255-1.146 0.388-1.752 0.388-0.457 0.005-0.902-0.146-1.261-0.428-0.335-0.269-0.605-0.61-0.791-0.996-0.29-0.626-0.329-1.339-0.11-1.993 0.291-0.898 0.67-1.765 1.131-2.59 0.12-0.239 0.27-0.528 0.46-0.867s0.37-0.678 0.571-0.996c0.2-0.319 0.38-0.687 0.55-0.996 0.143-0.276 0.303-0.542 0.48-0.797 0.19-0.339 0.26-0.558 0.23-0.667s-0.13-0.139-0.29-0.11c-0.201 0.043-0.396 0.11-0.581 0.199-0.21 0.109-0.41 0.229-0.601 0.349-0.49 0.339-1.001 0.707-1.511 1.116-0.501 0.394-0.979 0.816-1.431 1.265-0.31 0.727-0.621 1.465-0.941 2.202l-0.901 2.062c-0.28 0.638-0.511 1.186-0.711 1.644s-0.35 0.777-0.44 0.996c-0.094 0.202-0.233 0.381-0.407 0.522s-0.376 0.242-0.594 0.295c-0.427 0.135-0.885 0.135-1.311 0-0.404-0.127-0.741-0.406-0.941-0.777-0.107-0.229-0.155-0.481-0.14-0.734s0.095-0.497 0.23-0.711c0.27-0.608 0.651-1.415 1.121-2.401s1.001-1.992 1.481-3.118l1.471-3.188c0.42-1.166 0.831-2.042 1.171-2.78v0.010zM49.974 17.055l-3.824 6.675c-0.33 0.608-0.661 1.195-1.001 1.743-0.296 0.487-0.56 0.993-0.791 1.514-0.169 0.377-0.306 0.767-0.41 1.166-0.080 0.319-0.040 0.538 0.12 0.657 0.087 0.081 0.196 0.135 0.313 0.157s0.238 0.008 0.348-0.037c0.329-0.094 0.641-0.242 0.921-0.438 0.32-0.209 0.651-0.458 1.001-0.727s0.641-0.548 0.921-0.827l1.291-1.305c0.376-0.403 0.73-0.825 1.061-1.265 0.079-0.128 0.189-0.235 0.32-0.31s0.279-0.116 0.43-0.119c0.311-0.024 0.623 0.038 0.901 0.179 0.261 0.118 0.473 0.322 0.601 0.578 0.058 0.128 0.076 0.271 0.051 0.41s-0.092 0.267-0.191 0.367c-0.31 0.398-0.721 0.897-1.241 1.514s-1.181 1.305-2.002 2.102c-0.52 0.488-1.001 0.907-1.421 1.235-0.4 0.321-0.832 0.598-1.291 0.827-0.422 0.21-0.869 0.364-1.331 0.458-0.502 0.095-1.011 0.142-1.522 0.139-1.572 0-2.482-0.637-2.743-1.903s0.24-2.989 1.502-5.061c0.15-0.279 0.38-0.687 0.691-1.235s0.661-1.176 1.081-1.883l1.311-2.241c0.461-0.797 0.901-1.574 1.331-2.341-0.259 0.032-0.52 0.049-0.781 0.050h-0.831c-0.641 0-1.061-0.13-1.241-0.389-0.090-0.13-0.142-0.283-0.151-0.441s0.026-0.316 0.101-0.455c0.193-0.372 0.479-0.687 0.831-0.917 0.393-0.271 0.854-0.429 1.331-0.458h1.001c0.4 0 0.841 0 1.331 0l1.001-1.654c0.229-0.414 0.609-0.724 1.061-0.867 0.391-0.122 0.81-0.122 1.201 0 0.336 0.098 0.622 0.318 0.801 0.618 0.079 0.156 0.115 0.331 0.104 0.506s-0.067 0.344-0.164 0.49l-0.46 0.777h1.281c0.333 0.026 0.668 0.026 1.001 0 0.461 0 0.731 0.14 0.831 0.399 0.044 0.144 0.058 0.295 0.040 0.444s-0.065 0.293-0.141 0.423c-0.175 0.354-0.424 0.667-0.731 0.917-0.304 0.276-0.699 0.433-1.111 0.438l-2.733 0.090zM64.529 24.377c0.090-0.129 0.21-0.235 0.349-0.31s0.294-0.115 0.452-0.118c0.311-0.022 0.622 0.040 0.901 0.179 0.257 0.125 0.467 0.327 0.601 0.578 0.057 0.129 0.074 0.271 0.049 0.41s-0.091 0.266-0.189 0.367c-0.16 0.179-0.36 0.448-0.621 0.797s-0.571 0.727-0.921 1.126l-1.081 1.225c-0.391 0.421-0.806 0.82-1.241 1.195-0.653 0.614-1.4 1.122-2.212 1.504-0.53 0.255-1.113 0.381-1.702 0.369-0.453-0.015-0.888-0.176-1.241-0.458-0.342-0.284-0.636-0.62-0.871-0.996l-1.592 0.996c-0.792 0.387-1.672 0.562-2.553 0.508-0.729 0.016-1.447-0.174-2.072-0.548-0.588-0.37-1.041-0.918-1.291-1.564-0.29-0.765-0.386-1.59-0.28-2.401 0.14-1.075 0.494-2.111 1.041-3.048 0.549-1.052 1.254-2.016 2.092-2.859 0.747-0.75 1.573-1.418 2.462-1.993 0.754-0.484 1.569-0.87 2.422-1.146 0.645-0.222 1.32-0.346 2.002-0.369 0.34-0.004 0.679 0.050 1.001 0.159 0.279 0.103 0.547 0.233 0.801 0.388 0.252 0.154 0.484 0.338 0.691 0.548 0.197-0.37 0.526-0.654 0.921-0.797 0.401-0.169 0.838-0.234 1.271-0.189 0.339 0.029 0.654 0.186 0.881 0.438 0.19 0.249 0.17 0.578-0.070 0.996l-0.921 1.813c-0.37 0.717-0.751 1.454-1.151 2.202l-1.131 2.102c-0.259 0.486-0.543 0.958-0.851 1.415-0.147 0.206-0.221 0.455-0.21 0.707 0 0.14 0.18 0.199 0.39 0.189 0.263-0.032 0.516-0.12 0.741-0.259 0.307-0.17 0.587-0.386 0.831-0.638 0.521-0.548 0.941-0.996 1.261-1.305 0.381-0.378 0.73-0.788 1.041-1.225v0.010zM57.762 25.652c0.437-0.539 0.813-1.123 1.121-1.743 0.265-0.528 0.482-1.078 0.651-1.644 0.132-0.436 0.186-0.891 0.16-1.345-0.003-0.163-0.042-0.324-0.115-0.47s-0.177-0.275-0.306-0.376c-0.137-0.091-0.291-0.152-0.453-0.18s-0.328-0.020-0.488 0.020c-0.442 0.101-0.863 0.28-1.241 0.528-0.495 0.319-0.958 0.686-1.381 1.096-0.502 0.489-0.97 1.012-1.401 1.564-0.434 0.568-0.819 1.171-1.151 1.803-0.282 0.516-0.507 1.060-0.671 1.624-0.13 0.433-0.177 0.885-0.14 1.335 0.011 0.164 0.056 0.323 0.132 0.469s0.181 0.274 0.309 0.378c0.128 0.094 0.275 0.159 0.43 0.19s0.316 0.027 0.471-0.010c0.448-0.087 0.875-0.256 1.261-0.498 0.508-0.315 0.978-0.686 1.401-1.106 0.516-0.504 0.989-1.050 1.411-1.634zM64.529 24.367c0.725-0.832 1.394-1.71 2.002-2.63 0.701-1.056 1.351-1.992 1.932-2.909-0.389-0.498-0.678-1.066-0.851-1.674-0.201-0.646-0.308-1.316-0.32-1.992-0.020-0.644 0.064-1.286 0.25-1.903 0.178-0.569 0.528-1.070 1.001-1.435 0.54-0.468 1.218-0.752 1.932-0.807 0.56-0.025 1.112 0.144 1.562 0.478 0.44 0.382 0.751 0.89 0.891 1.454 0.202 0.61 0.243 1.262 0.12 1.893-0.089 0.477-0.244 0.94-0.46 1.375-0.25 0.528-0.541 1.086-0.871 1.704 0.409 0.090 0.832 0.090 1.241 0 0.411-0.099 0.842-0.078 1.241 0.060 0.31 0.115 0.581 0.315 0.781 0.578 0.183 0.226 0.282 0.507 0.28 0.797 0.003 0.132-0.020 0.263-0.068 0.387s-0.12 0.236-0.213 0.331c-0.12 0.12-0.37 0.398-0.731 0.817s-0.791 0.946-1.271 1.534c-0.481 0.588-1.001 1.235-1.451 1.903-0.453 0.619-0.874 1.261-1.261 1.923-0.314 0.517-0.576 1.065-0.781 1.634-0.17 0.468-0.15 0.787 0.060 0.937 0.205 0.152 0.45 0.24 0.705 0.253s0.508-0.051 0.726-0.183c0.693-0.286 1.342-0.665 1.932-1.126 0.707-0.516 1.376-1.082 2.002-1.694 0.555-0.525 1.076-1.084 1.562-1.674 0.102-0.115 0.227-0.209 0.366-0.276s0.29-0.105 0.445-0.113c0.299-0.016 0.597 0.039 0.871 0.159 0.25 0.118 0.454 0.314 0.581 0.558 0.057 0.129 0.074 0.271 0.049 0.41s-0.091 0.266-0.189 0.367c-0.61 0.802-1.28 1.558-2.002 2.261-0.845 0.88-1.785 1.665-2.803 2.341-0.965 0.658-2.030 1.16-3.153 1.485-0.493 0.158-1.013 0.215-1.529 0.169s-1.017-0.195-1.474-0.438c-0.372-0.166-0.691-0.428-0.926-0.759s-0.374-0.72-0.406-1.124c-0.082-0.947 0.076-1.899 0.461-2.77 0.435-1.065 1.007-2.070 1.702-2.989 0.684-0.955 1.488-1.818 2.392-2.57 0.157-0.116 0.29-0.261 0.39-0.428 0-0.080-0.3-0.239-0.941-0.488-0.771 1.196-1.511 2.291-2.232 3.297s-1.211 1.684-1.451 1.992c-0.097 0.138-0.224 0.253-0.371 0.335s-0.311 0.132-0.48 0.143c-0.299 0.026-0.598-0.047-0.851-0.209-0.24-0.143-0.426-0.36-0.531-0.618-0.051-0.128-0.065-0.268-0.040-0.403s0.087-0.262 0.18-0.364zM70.425 13.329c-0.114-0.004-0.228 0.022-0.329 0.074s-0.188 0.13-0.251 0.225c-0.148 0.235-0.24 0.501-0.27 0.777-0.051 0.33-0.051 0.666 0 0.996 0.060 0.371 0.185 0.728 0.37 1.056 0.18-0.369 0.35-0.737 0.501-1.106 0.141-0.321 0.252-0.655 0.33-0.996 0.061-0.249 0.061-0.508 0-0.757-0.023-0.076-0.069-0.142-0.132-0.191s-0.139-0.076-0.218-0.079zM84.179 17.045l-3.824 6.685c-0.34 0.608-0.671 1.195-1.001 1.743-0.289 0.489-0.55 0.995-0.781 1.514-0.173 0.375-0.31 0.765-0.41 1.166-0.080 0.319 0 0.538 0.11 0.657 0.089 0.081 0.199 0.135 0.318 0.156s0.241 0.009 0.353-0.036c0.329-0.094 0.641-0.242 0.921-0.438 0.32-0.209 0.651-0.458 1.001-0.727s0.641-0.548 0.921-0.827c0.551-0.548 1.001-0.996 1.281-1.305 0.365-0.401 0.706-0.824 1.021-1.265 0.082-0.139 0.199-0.255 0.339-0.335s0.3-0.123 0.462-0.123c0.311-0.022 0.622 0.040 0.901 0.179 0.257 0.125 0.467 0.327 0.601 0.578 0.057 0.129 0.074 0.271 0.049 0.41s-0.091 0.266-0.189 0.367c-0.31 0.399-0.721 0.897-1.241 1.514s-1.181 1.305-2.002 2.102c-0.521 0.488-1.001 0.907-1.431 1.235-0.398 0.318-0.827 0.595-1.281 0.827-0.425 0.21-0.876 0.364-1.341 0.458-0.501 0.095-1.011 0.142-1.522 0.139-1.561 0-2.472-0.638-2.733-1.903s0.24-2.989 1.491-5.061c0.16-0.279 0.39-0.687 0.691-1.235l1.081-1.883c0.42-0.697 0.851-1.445 1.311-2.242s0.911-1.574 1.341-2.341c-0.259 0.032-0.52 0.049-0.781 0.050h-0.831c-0.651 0-1.061-0.13-1.241-0.388-0.084-0.135-0.129-0.29-0.129-0.448s0.045-0.314 0.129-0.448c0.19-0.374 0.477-0.69 0.831-0.916 0.393-0.271 0.854-0.429 1.331-0.458h1.001c0.4 0 0.841 0 1.331 0l1.001-1.654c0.226-0.39 0.585-0.686 1.011-0.837 0.391-0.122 0.81-0.122 1.201 0 0.333 0.104 0.617 0.323 0.801 0.618 0.077 0.157 0.112 0.332 0.1 0.507s-0.071 0.344-0.17 0.489l-0.46 0.777h1.291c0.334 0.026 0.668 0.026 1.001 0 0.461 0 0.731 0.14 0.821 0.399 0.046 0.143 0.061 0.294 0.047 0.443s-0.062 0.294-0.137 0.424c-0.178 0.352-0.427 0.664-0.731 0.917-0.316 0.273-0.722 0.418-1.141 0.408l-2.712 0.11zM91.827 24.367c0.079-0.128 0.189-0.235 0.32-0.31s0.279-0.116 0.43-0.119c0.311-0.024 0.623 0.038 0.901 0.179 0.26 0.118 0.472 0.322 0.6 0.578 0.058 0.128 0.076 0.271 0.051 0.41s-0.092 0.267-0.191 0.367c-0.311 0.398-0.711 0.897-1.222 1.514-0.626 0.738-1.295 1.439-2.002 2.102-0.52 0.488-1.001 0.907-1.421 1.235-0.4 0.321-0.832 0.598-1.291 0.827-0.422 0.21-0.869 0.364-1.331 0.458-0.502 0.095-1.011 0.142-1.522 0.139-1.572 0-2.482-0.637-2.743-1.903s0.24-2.989 1.501-5.061c0.27-0.458 0.561-0.996 0.871-1.534s0.621-1.126 0.941-1.674l0.921-1.554c0.291-0.488 0.551-0.907 0.761-1.245 0.234-0.404 0.613-0.706 1.061-0.847 0.381-0.12 0.79-0.12 1.171 0 0.333 0.108 0.619 0.326 0.811 0.618 0.080 0.158 0.114 0.336 0.097 0.513s-0.087 0.344-0.197 0.484c-0.331 0.588-0.721 1.265-1.151 2.042l-1.101 2.142c-0.331 0.608-0.661 1.195-1.001 1.743-0.297 0.487-0.561 0.993-0.791 1.514-0.169 0.377-0.306 0.767-0.41 1.166-0.080 0.319-0.040 0.538 0.12 0.657 0.087 0.081 0.196 0.135 0.313 0.157s0.238 0.008 0.348-0.037c0.355-0.092 0.693-0.24 1.001-0.438 0.346-0.225 0.68-0.468 1.001-0.727 0.331-0.279 0.64-0.548 0.921-0.827l1.241-1.305c0.352-0.404 0.683-0.827 0.991-1.265zM93.708 14.156c-0.169 0.287-0.374 0.552-0.611 0.787-0.188 0.192-0.385 0.375-0.591 0.548-0.386 0.235-0.809 0.404-1.251 0.498-0.352 0.094-0.722 0.11-1.081 0.050-0.13-0.018-0.253-0.070-0.356-0.151s-0.184-0.186-0.234-0.307c-0.11-0.239 0-0.578 0.25-0.996 0.125-0.243 0.261-0.479 0.41-0.707 0.19-0.289 0.35-0.558 0.511-0.807 0.11-0.175 0.256-0.325 0.429-0.44s0.367-0.193 0.572-0.228c0.4-0.073 0.811-0.049 1.201 0.070 0.343 0.11 0.635 0.34 0.821 0.648 0.085 0.162 0.124 0.345 0.111 0.528s-0.074 0.359-0.181 0.508zM92.197 23.501c0.546-0.977 1.219-1.878 2.002-2.68 0.744-0.733 1.578-1.369 2.482-1.893 0.793-0.468 1.671-0.779 2.582-0.917 0.811-0.121 1.64-0.043 2.413 0.229 0.284 0.084 0.539 0.243 0.739 0.461s0.335 0.486 0.392 0.775c0.067 0.6-0.022 1.208-0.26 1.763-0.237 0.646-0.575 1.251-1.001 1.793-0.374 0.474-0.793 0.911-1.251 1.305-0.273 0.247-0.632 0.379-1.001 0.369-0.329-0.023-0.643-0.144-0.901-0.349-0.231-0.184-0.404-0.429-0.501-0.707-0.048-0.118-0.056-0.249-0.023-0.373s0.104-0.234 0.203-0.314l0.781-0.777c0.284-0.28 0.548-0.58 0.791-0.897 0.172-0.213 0.296-0.461 0.36-0.727 0-0.199-0.1-0.299-0.41-0.299-0.377 0.019-0.743 0.136-1.061 0.339-0.455 0.278-0.872 0.613-1.241 0.996-0.467 0.448-0.899 0.931-1.292 1.444-0.444 0.562-0.842 1.159-1.191 1.783-0.421 0.655-0.625 1.425-0.581 2.202 0.026 0.29 0.111 0.571 0.25 0.826s0.331 0.479 0.561 0.658c0.525 0.326 1.148 0.46 1.761 0.379 0.921-0.104 1.802-0.425 2.573-0.937 0.397-0.238 0.781-0.498 1.151-0.777 0.401-0.309 0.781-0.628 1.151-0.996s0.71-0.668 1.001-0.996c0.278-0.282 0.539-0.582 0.78-0.897 0.080-0.127 0.188-0.232 0.317-0.306s0.275-0.117 0.424-0.122c0.292-0.019 0.586 0.035 0.851 0.159 0.254 0.116 0.46 0.317 0.581 0.568 0.060 0.131 0.082 0.275 0.064 0.418s-0.074 0.277-0.164 0.389c-0.225 0.326-0.469 0.639-0.73 0.937-0.311 0.349-0.661 0.727-1.062 1.126s-0.82 0.787-1.261 1.186c-0.44 0.398-0.901 0.767-1.361 1.106-0.813 0.657-1.743 1.154-2.743 1.464-0.856 0.258-1.747 0.389-2.642 0.389-0.757 0.001-1.508-0.141-2.212-0.418-0.556-0.198-1.047-0.542-1.421-0.996-0.375-0.461-0.636-1.004-0.76-1.584-0.127-0.558-0.171-1.133-0.131-1.704 0.041-0.604 0.149-1.202 0.32-1.783 0.159-0.562 0.385-1.104 0.671-1.614zM118.062 24.367c0.090-0.129 0.209-0.235 0.349-0.31s0.294-0.115 0.452-0.119c0.311-0.022 0.623 0.040 0.901 0.179 0.26 0.118 0.472 0.322 0.6 0.578 0.057 0.129 0.074 0.271 0.049 0.41s-0.091 0.266-0.189 0.367c-0.15 0.179-0.36 0.448-0.62 0.797s-0.57 0.727-0.921 1.126c-0.35 0.398-0.731 0.807-1.132 1.235-0.391 0.421-0.805 0.82-1.241 1.195-0.647 0.613-1.387 1.12-2.191 1.504-0.531 0.255-1.113 0.381-1.702 0.369-0.452-0.015-0.888-0.176-1.241-0.458-0.342-0.284-0.636-0.62-0.871-0.996l-1.591 0.996c-0.792 0.387-1.672 0.562-2.553 0.508-0.728 0.016-1.447-0.174-2.072-0.548-0.586-0.373-1.038-0.92-1.291-1.564-0.286-0.766-0.38-1.591-0.271-2.401 0.122-1.073 0.464-2.11 1.001-3.048 0.553-1.053 1.261-2.017 2.102-2.859 0.743-0.754 1.569-1.423 2.462-1.993 0.75-0.486 1.561-0.871 2.413-1.146 0.645-0.222 1.319-0.346 2.002-0.369 0.34-0.005 0.678 0.049 1.001 0.159 0.281 0.105 0.552 0.235 0.811 0.388 0.287 0.156 0.555 0.343 0.801 0.558 0.195-0.372 0.523-0.656 0.921-0.797 0.382-0.161 0.798-0.226 1.211-0.189 0.339 0.027 0.656 0.184 0.881 0.438 0.201 0.249 0.17 0.578-0.070 0.996s-0.55 1.096-0.921 1.813-0.751 1.455-1.151 2.202c-0.401 0.747-0.771 1.445-1.131 2.102-0.254 0.498-0.539 0.98-0.851 1.445-0.18 0.339-0.25 0.568-0.2 0.707s0.17 0.199 0.39 0.189c0.26-0.032 0.509-0.121 0.731-0.259 0.307-0.171 0.587-0.385 0.831-0.638 0.521-0.548 0.941-0.996 1.261-1.305 0.387-0.388 0.734-0.812 1.041-1.265zM111.296 25.652c0.83-1.003 1.448-2.162 1.822-3.407 0.13-0.433 0.184-0.884 0.16-1.335-0.004-0.162-0.042-0.322-0.113-0.468s-0.172-0.275-0.298-0.379c-0.144-0.098-0.309-0.163-0.482-0.191s-0.35-0.017-0.519 0.032c-0.441 0.102-0.862 0.281-1.241 0.528-0.496 0.319-0.959 0.686-1.382 1.096-0.499 0.492-0.967 1.014-1.402 1.564-0.43 0.573-0.816 1.18-1.151 1.813-0.282 0.516-0.506 1.060-0.671 1.624-0.127 0.433-0.171 0.886-0.13 1.335 0.009 0.163 0.052 0.322 0.126 0.468s0.178 0.275 0.304 0.379c0.129 0.092 0.276 0.157 0.431 0.188s0.317 0.028 0.471-0.008c0.447-0.087 0.875-0.256 1.261-0.498 0.51-0.317 0.982-0.688 1.411-1.106 0.51-0.507 0.979-1.053 1.402-1.634z"></path>
</symbol>
<symbol id="icon-logo" viewBox="0 0 124 32">
<path d="M29.633 28.571h-5.506l-0.753 3.429h-6.161l5.905-22.857h7.614l5.905 22.857h-6.29l-0.715-3.429zM28.665 24.169l-1.752-8.226-1.827 8.226h3.579z"></path>
<path d="M54.286 9.143v22.857h-5.362l-5.118-12v12h-5.727v-22.857h5.368l5.118 12.211v-12.211h5.722z"></path>
<path d="M71.005 13.594h-4.438v18.406h-6.25v-18.406h-4.418v-4.451h15.105v4.451z"></path>
<path d="M83.603 28.571h-5.512l-0.752 3.429h-6.156l5.906-22.857h7.623l5.905 22.857h-6.299l-0.715-3.429zM82.638 24.157l-1.755-8.214-1.824 8.226 3.579-0.011z"></path>
<path d="M101.213 16.974v-2.954c0-0.534-0.287-0.783-0.896-0.783h-1.287c-0.609 0-0.896 0.249-0.896 0.783v13.103c0 0.534 0.287 0.783 0.896 0.783h1.287c0.609 0 0.896-0.249 0.896-0.783v-3.809h-1.789v-3.954h8.042v8.226c0 2.669-1.436 4.414-5.259 4.414h-5.084c-3.829 0-5.262-1.746-5.262-4.414v-14.029c0-2.669 1.436-4.414 5.262-4.414h5.084c3.828 0 5.259 1.746 5.259 4.414v3.429l-6.253-0.011z"></path>
<path d="M124.082 27.549v4.451h-14.103v-22.857h13.787v4.451h-7.523v4.663h6.477v4.451h-6.477v4.84h7.839z"></path>
<path d="M12.063 0l-4.406 24.417-1.338-7.846h-6.319l4.041 15.429h7.267l6.5-26.286h106.274l-112.018-5.714z"></path>
</symbol>
<symbol id="icon-choc" viewBox="0 0 125 32">
<path d="M28.675 25.78c-1.651 1.89-3.685 3.413-5.967 4.469s-4.763 1.622-7.28 1.661c-9.267 0-15.428-5.91-15.428-15.61 0-10 7.558-16 13.287-16 1.281-0.067 2.56 0.17 3.731 0.692s2.2 1.313 3.003 2.308l1.005-2.43h6.865v12.3h-7.789c-0.131-2.82-1.528-5.47-4.634-5.47s-5.196 3.87-5.196 8.6c0 4.31 2.231 8.18 6.382 8.18 3.669 0 6.553-3.83 6.945-4.26l5.076 5.56zM44.596 0.83v5.74h-2.714v6.56h8.302v-6.56h-2.573v-5.74h14.202v5.74h-2.513v18.91h2.513v5.74h-14.202v-5.74h2.573v-6.57h-8.302v6.57h2.714v5.74h-14.172v-5.74h2.412v-18.91h-2.412v-5.74h14.172zM63.562 15.83c0-9.35 6.302-15.83 15.348-15.83 10.715 0 15.7 6.39 15.7 16.17s-5.518 15.83-15.398 15.83c-9.136 0-15.649-5.26-15.649-16.13v-0.040zM83.664 16.13c0-5.26-1.437-9.47-4.804-9.47-2.674 0-4.503 3.78-4.503 9.17 0 5.7 2.010 9.3 4.845 9.3s4.473-3.56 4.473-8.96l-0.010-0.040zM124.632 25.78c-1.651 1.89-3.684 3.413-5.967 4.469s-4.763 1.622-7.28 1.661c-9.267 0-15.428-5.91-15.428-15.61 0-10 7.559-16 13.288-16 1.282-0.067 2.56 0.17 3.731 0.692s2.2 1.313 3.004 2.308l1.005-2.43h6.865v12.3h-7.83c-0.131-2.82-1.528-5.47-4.633-5.47s-5.197 3.87-5.197 8.6c0 4.31 2.232 8.18 6.382 8.18 3.669 0 6.553-3.83 6.946-4.26l5.116 5.56z"></path>
</symbol>
<symbol id="icon-cupcakes" viewBox="0 0 120 32">
<path d="M31.876 4.068c0.281 0.31 0.362 0.55 0.251 0.73s-0.352 0.16-0.714 0c-0.348-0.183-0.732-0.289-1.125-0.31-0.343 0.007-0.677-0.115-0.934-0.34-0.728-0.721-1.601-1.28-2.562-1.64-0.995-0.382-2.042-0.611-3.105-0.68-1.067-0.080-2.14-0.030-3.195 0.15-0.98 0.157-1.936 0.439-2.844 0.84-1.073 0.499-2.085 1.12-3.015 1.85-1.178 0.878-2.293 1.837-3.336 2.87-1.161 1.116-2.248 2.305-3.256 3.56-1.020 1.286-1.947 2.643-2.773 4.060-0.803 1.333-1.475 2.74-2.010 4.2-0.475 1.318-0.739 2.701-0.784 4.1-0.021 0.338 0.075 0.673 0.271 0.95 0.184 0.232 0.427 0.411 0.703 0.52 0.304 0.109 0.622 0.173 0.945 0.19 0.305 0.016 0.61 0.016 0.914 0 1.030-0.106 2.042-0.338 3.015-0.69 1.016-0.356 2.006-0.781 2.964-1.27 0.978-0.5 1.902-1.030 2.773-1.59 0.884-0.55 1.688-1.090 2.412-1.61s1.367-1 1.919-1.39c0.553-0.39 0.955-0.7 1.236-0.88 0.42-0.304 0.889-0.534 1.387-0.68 0.358-0.045 0.701-0.168 1.005-0.36l1.286-0.82c0.301-0.17 0.482-0.22 0.533-0.15s0 0.23-0.261 0.46c-1.075 1.14-2.201 2.23-3.376 3.25s-2.372 2-3.587 3c-0.74 0.577-1.508 1.118-2.301 1.62-0.914 0.591-1.86 1.132-2.834 1.62-0.977 0.483-1.984 0.904-3.015 1.26-0.913 0.324-1.874 0.497-2.844 0.51-0.89 0.032-1.777-0.125-2.603-0.46-0.68-0.285-1.278-0.736-1.738-1.31-0.456-0.558-0.797-1.201-1.005-1.89-0.194-0.714-0.285-1.451-0.271-2.19 0.048-1.478 0.34-2.937 0.864-4.32 0.563-1.565 1.283-3.069 2.15-4.49 0.919-1.512 1.961-2.947 3.115-4.29 1.141-1.328 2.38-2.568 3.708-3.71 1.193-1.024 2.478-1.938 3.839-2.73 1.133-0.701 2.366-1.227 3.658-1.56 1.241-0.257 2.502-0.404 3.768-0.44 2.626-0.084 5.232 0.49 7.577 1.67 1.195 0.608 2.276 1.417 3.195 2.39zM20.481 19.118c-0.199 0.178-0.411 0.342-0.633 0.49-0.090 0-0.131 0-0.121-0.050 0.037-0.136 0.091-0.267 0.161-0.39 0.079-0.139 0.149-0.283 0.211-0.43 0.188-0.461 0.326-0.94 0.412-1.43 0.033-0.369 0.181-0.718 0.422-1l0.734-0.86c0.332-0.39 0.723-0.82 1.186-1.28 0.491-0.484 1.008-0.941 1.547-1.37 0.554-0.438 1.149-0.82 1.779-1.14 0.123-0.065 0.257-0.103 0.396-0.114s0.277 0.008 0.408 0.054c0.29 0.084 0.562 0.22 0.804 0.4 0.219 0.163 0.401 0.371 0.533 0.61 0.056 0.085 0.085 0.184 0.085 0.285s-0.030 0.2-0.085 0.285c-0.339 0.631-0.715 1.242-1.125 1.83-0.502 0.7-1.005 1.44-1.497 2.23s-0.945 1.59-1.357 2.4c-0.368 0.714-0.648 1.469-0.834 2.25 0.699-0.398 1.353-0.871 1.949-1.41 0.683-0.61 1.357-1.28 2.010-2s1.316-1.46 2.010-2.21l1.779-2.080c0.071-0.104 0.174-0.183 0.294-0.222s0.25-0.039 0.369 0.003c0.278 0.078 0.53 0.226 0.734 0.43 0.214 0.222 0.375 0.488 0.472 0.78 0.055 0.126 0.084 0.262 0.084 0.4s-0.029 0.274-0.084 0.4c-0.6 1.139-1.075 2.339-1.417 3.58 0.856-0.5 1.678-1.054 2.462-1.66 0.794-0.61 1.417-1.080 1.879-1.41 0.14-0.096 0.292-0.174 0.452-0.23l0.502-0.15c0.209-0.063 0.414-0.14 0.613-0.23 0.235-0.1 0.516-0.24 0.844-0.42 0.432-0.23 0.663-0.3 0.683-0.23s-0.11 0.27-0.422 0.57c-0.563 0.56-1.156 1.16-1.799 1.79s-1.286 1.25-1.949 1.85c-0.663 0.6-1.316 1.16-2.010 1.68-0.56 0.469-1.166 0.881-1.809 1.23-0.091 0.055-0.194 0.089-0.3 0.099s-0.213-0.003-0.313-0.039c-0.236-0.064-0.46-0.165-0.663-0.3-0.21-0.132-0.394-0.301-0.543-0.5-0.128-0.156-0.202-0.349-0.211-0.55-0.040-0.406-0.033-0.816 0.020-1.22-0.663 0.69-1.357 1.34-2.080 2-0.763 0.643-1.576 1.225-2.432 1.74-0.281 0.134-0.595 0.186-0.904 0.15-0.403-0.029-0.801-0.106-1.186-0.23-0.365-0.124-0.705-0.31-1.005-0.55-0.138-0.114-0.249-0.258-0.324-0.421s-0.112-0.34-0.108-0.519c-0.025-0.437 0.033-0.874 0.171-1.29 0.151-0.486 0.329-0.963 0.533-1.43 0.221-0.5 0.462-1 0.734-1.47l0.744-1.37c-0.482 0.46-0.955 0.91-1.417 1.37s-0.955 0.92-1.387 1.3zM39.915 15.268c-0.633 0.74-1.226 1.38-1.728 1.94-0.32 0.408-0.754 0.714-1.246 0.88-0.211 0.013-0.422 0.013-0.633 0-0.235 0.013-0.464 0.085-0.663 0.21-0.305 0.145-0.589 0.33-0.844 0.55-0.243 0.205-0.498 0.396-0.764 0.57-0.181 0.12-0.211 0.070-0.101-0.13s0.523-0.74 1.206-1.6c1.105-1.373 2.17-2.707 3.195-4 0.954-1.209 1.843-2.467 2.663-3.77 0.061-0.079 0.145-0.137 0.24-0.168s0.197-0.031 0.293-0.002c0.236 0.053 0.463 0.14 0.673 0.26 0.249 0.117 0.471 0.284 0.653 0.49 0.181 0.21 0.261 0.38 0.231 0.53-0.131 0.41-0.241 0.81-0.342 1.2s-0.191 0.8-0.271 1.2c0.775-0.536 1.667-0.878 2.603-1 0.495-0.048 0.994 0.046 1.437 0.27 0.464 0.22 0.891 0.51 1.266 0.86 0.345 0.313 0.64 0.677 0.874 1.080 0.189 0.281 0.29 0.612 0.291 0.95-0.041 0.813-0.336 1.592-0.844 2.23-0.516 0.651-1.137 1.212-1.839 1.66 0.813-0.261 1.6-0.596 2.351-1 0.633-0.36 1.166-0.68 1.608-1s0.824-0.55 1.136-0.76c0.269-0.203 0.582-0.34 0.914-0.4 0.127-0.012 0.255-0.012 0.382 0 0.112-0.004 0.221-0.031 0.322-0.080 0.145-0.068 0.28-0.156 0.402-0.26l0.653-0.54c0.181-0.17 0.291-0.23 0.342-0.17s0.050 0.12 0 0.17c-0.577 0.919-1.251 1.774-2.010 2.55-0.8 0.838-1.678 1.598-2.623 2.27-0.93 0.661-1.923 1.231-2.964 1.7-0.978 0.436-2.019 0.716-3.085 0.83-0.234 0.020-0.469-0.004-0.693-0.070-0.341-0.083-0.676-0.187-1.005-0.31-0.314-0.116-0.615-0.266-0.894-0.45-0.224-0.134-0.414-0.319-0.553-0.54l-0.161 0.42c-0.301 0.84-0.613 1.7-0.914 2.57s-0.643 1.75-1.005 2.63c-0.362 0.865-0.771 1.709-1.226 2.53-0.436 0.801-0.955 1.555-1.547 2.25-0.070 0.073-0.157 0.127-0.254 0.157s-0.2 0.034-0.299 0.013c-0.248-0.052-0.471-0.186-0.633-0.38-0.22-0.25-0.384-0.543-0.482-0.86-0.114-0.396-0.145-0.811-0.091-1.22 0.271-2.042 0.851-4.031 1.718-5.9 0.933-2.067 1.969-4.086 3.105-6.050 0.121-0.23 0.261-0.46 0.402-0.69 0.132-0.224 0.277-0.441 0.432-0.65l0.322-0.97zM46.687 14.318c-1.075 0.029-2.107 0.424-2.924 1.12-0.831 0.702-1.558 1.516-2.16 2.42-0.127 0.507-0.248 0.997-0.362 1.47-0.121 0.47-0.251 1-0.402 1.46l0.221-0.11c0.616-0.272 1.202-0.607 1.748-1 0.659-0.442 1.278-0.94 1.849-1.49 0.581-0.541 1.078-1.165 1.477-1.85 0.373-0.607 0.565-1.308 0.553-2.020zM54.264 20.908c0.928-0.033 1.844-0.215 2.713-0.54 0.897-0.33 1.761-0.742 2.582-1.23 0.826-0.494 1.618-1.042 2.371-1.64 0.754-0.6 1.437-1.16 2.010-1.7 0.059-0.062 0.131-0.111 0.211-0.144s0.165-0.048 0.252-0.046c0.121 0 0.1 0.18-0.080 0.46-0.286 0.473-0.499 0.985-0.633 1.52-0.041 0.332-0.166 0.648-0.362 0.92-0.259 0.311-0.534 0.608-0.824 0.89-0.369 0.363-0.766 0.697-1.186 1-0.442 0.34-0.914 0.67-1.397 1-0.457 0.297-0.946 0.541-1.457 0.73-0.444 0.186-0.905 0.33-1.377 0.43-0.501 0.119-1.013 0.19-1.527 0.21-0.401-0.016-0.796-0.104-1.166-0.26-0.455-0.183-0.881-0.428-1.266-0.73-0.371-0.296-0.708-0.631-1.005-1-0.257-0.277-0.422-0.626-0.472-1-0.133-1.184-0.054-2.383 0.231-3.54 0.266-1.053 0.682-2.064 1.236-3 0.524-0.891 1.204-1.68 2.010-2.33 0.789-0.644 1.687-1.142 2.653-1.47 0.349-0.114 0.726-0.114 1.075 0 0.411 0.132 0.803 0.317 1.166 0.55 0.342 0.222 0.65 0.491 0.914 0.8 0.21 0.225 0.338 0.514 0.362 0.82-0.007 0.349-0.096 0.692-0.261 1-0.199 0.404-0.424 0.795-0.673 1.17-0.261 0.4-0.563 0.82-0.874 1.25l-0.904 1.22c-0.281 0.36-0.482 0.48-0.613 0.38s-0.111-0.37 0-0.8c0.1-0.28 0.171-0.5 0.211-0.66 0.036-0.144 0.057-0.292 0.060-0.44 0.002-0.123-0.018-0.245-0.060-0.36-0.042-0.131-0.075-0.265-0.1-0.4-0.018-0.196 0.002-0.393 0.060-0.58 0.071-0.218 0.155-0.432 0.251-0.64 0.1-0.23 0.201-0.47 0.301-0.73 0.104-0.258 0.181-0.526 0.231-0.8-0.773 0.313-1.462 0.803-2.010 1.43-0.662 0.729-1.216 1.547-1.648 2.43-0.469 0.926-0.807 1.912-1.005 2.93-0.208 0.956-0.208 1.945 0 2.9zM65.519 13.908c0.65-0.639 1.345-1.23 2.080-1.77 0.493-0.369 1.053-0.64 1.648-0.8 0.465-0.121 0.957-0.082 1.397 0.11 0.507 0.243 0.961 0.582 1.337 1l0.583-0.87c0.072-0.091 0.17-0.158 0.282-0.192s0.23-0.033 0.341 0.002c0.304 0.047 0.593 0.164 0.844 0.34 0.25 0.16 0.46 0.376 0.613 0.63 0.071 0.090 0.109 0.201 0.109 0.315s-0.039 0.225-0.109 0.315c-0.253 0.35-0.482 0.718-0.683 1.1-0.332 0.58-0.683 1.25-1.005 2s-0.703 1.49-1.005 2.23c-0.263 0.574-0.465 1.174-0.603 1.79-0.017 0.062-0.017 0.128 0 0.19v0.23c0.522-0.298 1.022-0.632 1.497-1 0.553-0.4 1.105-0.81 1.638-1.23l1.517-1.2 1.085-0.88c0.167-0.129 0.349-0.236 0.543-0.32 0.147-0.065 0.298-0.122 0.452-0.17l0.502-0.18c0.217-0.081 0.423-0.189 0.613-0.32 0.151-0.1 0.261-0.13 0.322-0.090s0 0.14-0.090 0.32c-1.005 1.32-2.010 2.6-3.175 3.85-0.311 0.33-0.653 0.71-1.005 1.14-0.383 0.426-0.799 0.821-1.246 1.18-0.423 0.34-0.893 0.616-1.397 0.82-0.478 0.19-1.006 0.211-1.497 0.060-0.704-0.099-1.345-0.455-1.799-1-0.279-0.5-0.348-1.090-0.191-1.64-0.475 0.692-0.985 1.36-1.527 2-0.416 0.525-0.919 0.974-1.487 1.33-1.738 1-3.015 0.67-3.909-1.1-0.199-0.437-0.301-0.911-0.301-1.39-0.016-0.658 0.093-1.313 0.322-1.93 0.273-0.797 0.641-1.56 1.095-2.27 0.631-0.954 1.373-1.83 2.211-2.61v0.010zM66.051 20.158c0.991-1.073 1.943-2.203 2.854-3.39 0.904-1.2 1.769-2.4 2.582-3.62-0.433-0.028-0.863 0.084-1.226 0.32-0.502 0.299-0.982 0.633-1.437 1-0.472 0.37-0.904 0.73-1.296 1.090-0.28 0.233-0.542 0.487-0.784 0.76-0.315 0.36-0.65 0.81-1.005 1.35-0.392 0.55-0.764 1.11-1.105 1.7-0.321 0.523-0.596 1.071-0.824 1.64-0.195 0.347-0.249 0.755-0.151 1.14 0.151 0.23 0.392 0.17 0.744-0.17l1.648-1.82zM94.791 16.388c0.134-0.073 0.275-0.134 0.422-0.18l0.402-0.11 0.493-0.17c0.19-0.080 0.432-0.19 0.713-0.34s0.522-0.28 0.573-0.21c0.051 0.070 0 0.23-0.312 0.51-0.512 0.63-1.115 1.32-1.829 2.060s-1.457 1.41-2.221 2.060c-0.714 0.61-1.47 1.171-2.261 1.68-0.585 0.405-1.249 0.685-1.949 0.82-0.815 0.127-1.65 0.026-2.411-0.29-0.645-0.216-1.197-0.642-1.568-1.21-0.264-0.476-0.412-1.007-0.432-1.55-0.051-0.596-0.051-1.194 0-1.79 0.027-0.243 0.123-0.474 0.279-0.663s0.361-0.331 0.595-0.407c0.389-0.177 0.768-0.374 1.136-0.59 0.43-0.258 0.84-0.549 1.225-0.87 0.386-0.344 0.739-0.723 1.055-1.13 0.328-0.351 0.578-0.766 0.733-1.22-0.826 0.256-1.594 0.67-2.261 1.22-0.691 0.528-1.342 1.107-1.949 1.73-0.626 0.636-1.219 1.304-1.778 2-0.603 0.75-1.156 1.46-1.668 2.15s-0.945 1.29-1.296 1.83c-0.352 0.54-0.593 0.87-0.693 1-0.083 0.142-0.196 0.266-0.331 0.36s-0.29 0.16-0.453 0.19c-0.314 0.053-0.635 0.038-0.942-0.045s-0.593-0.232-0.836-0.435c-0.090-0.061-0.155-0.152-0.182-0.257s-0.017-0.216 0.031-0.313l3.597-6.47c-0.692 0.66-1.42 1.281-2.181 1.86-0.768 0.585-1.574 1.119-2.412 1.6-0.311 0.2-0.613 0.39-0.924 0.55s-0.543 0.29-0.703 0.37c-0.161 0.080-0.251 0.080-0.251 0s0.141-0.23 0.422-0.51c0.505-0.491 0.972-1.019 1.397-1.58 0.279-0.367 0.505-0.771 0.673-1.2 0.187-0.493 0.511-0.923 0.935-1.24l2.010-1.81c0.764-0.71 1.588-1.53 2.472-2.45 0.921-0.989 1.758-2.053 2.502-3.18 0.482-1 1.005-2 1.396-3.070s0.835-2.080 1.246-3.080c0.070-0.18 0.221-0.24 0.452-0.19 0.269 0.068 0.515 0.206 0.713 0.4 0.253 0.226 0.47 0.489 0.643 0.78 0.205 0.291 0.294 0.647 0.251 1-0.025 0.416-0.109 0.827-0.251 1.22-0.131 0.4-0.296 0.788-0.493 1.16-0.166 0.351-0.365 0.686-0.593 1-0.201 0.27-0.371 0.48-0.503 0.63-0.221 0.51-0.422 1-0.593 1.32s-0.331 0.71-0.512 1c-0.181 0.29-0.362 0.68-0.533 1s-0.402 0.78-0.653 1.26c0.616-0.382 1.261-0.716 1.929-1 0.701-0.27 1.451-0.386 2.2-0.34 0.276 0.015 0.544 0.094 0.784 0.23 0.322 0.153 0.62 0.352 0.884 0.59s0.485 0.518 0.653 0.83c0.16 0.286 0.206 0.621 0.131 0.94-0.153 0.526-0.387 1.025-0.694 1.48-0.333 0.518-0.724 0.998-1.165 1.43-0.452 0.42-0.947 0.792-1.477 1.11-0.492 0.333-1.017 0.615-1.567 0.84-0.056 0.399 0.038 0.804 0.261 1.14 0.231 0.38 0.412 0.69 0.542 0.92 0.671-0.142 1.313-0.396 1.899-0.75 0.704-0.41 1.387-0.87 2.071-1.35s1.286-0.94 1.848-1.37c0.406-0.343 0.844-0.648 1.307-0.91v0.010zM101.181 15.548c-0.305 0.438-0.642 0.856-1.005 1.25-0.413 0.429-0.853 0.833-1.316 1.21-0.436 0.368-0.899 0.702-1.386 1-0.389 0.26-0.817 0.46-1.267 0.59 0 0.281 0.020 0.562 0.061 0.84 0.026 0.247 0.112 0.484 0.251 0.69 0.072 0.147 0.188 0.269 0.332 0.349s0.308 0.115 0.472 0.101c0.351-0.033 0.693-0.135 1.005-0.3 0.645-0.328 1.263-0.705 1.848-1.13 0.645-0.454 1.267-0.941 1.859-1.46 0.612-0.54 1.206-1.090 1.779-1.66s1.105-1.11 1.587-1.62c0.201-0.2 0.352-0.27 0.442-0.21s0.081 0.19 0 0.37c-0.241 0.531-0.453 1.075-0.633 1.63-0.141 0.46-0.261 0.84-0.361 1.15-0.104 0.303-0.253 0.59-0.442 0.85-0.278 0.42-0.583 0.821-0.915 1.2-0.397 0.463-0.827 0.897-1.287 1.3-0.479 0.427-1.012 0.79-1.587 1.080-0.571 0.292-1.191 0.479-1.828 0.55-0.681 0.081-1.373-0.008-2.010-0.26-0.842-0.274-1.556-0.843-2.009-1.6-0.401-0.709-0.619-1.506-0.633-2.32-0.024-0.875 0.106-1.748 0.381-2.58 0.253-0.826 0.589-1.623 1.005-2.38 0.213-0.384 0.455-0.752 0.723-1.1 0.31-0.414 0.645-0.808 1.005-1.18 0.339-0.365 0.708-0.699 1.106-1 0.319-0.248 0.696-0.413 1.095-0.48 0.467-0.005 0.926 0.109 1.336 0.33 0.431 0.186 0.831 0.435 1.186 0.74 0.264 0.267 0.415 0.625 0.422 1 0.027 0.365-0.031 0.731-0.171 1.070-0.148 0.347-0.327 0.682-0.532 1l-0.513 0.98zM96.971 16.868c0.619-0.599 1.187-1.248 1.699-1.94 0.529-0.703 0.962-1.473 1.286-2.29-0.267 0.182-0.507 0.401-0.713 0.65-0.241 0.278-0.463 0.572-0.664 0.88-0.211 0.3-0.402 0.6-0.573 0.89s-0.322 0.53-0.422 0.71l-0.613 1.1zM118.203 15.868c0.413-0.3 0.643-0.43 0.694-0.36s-0.091 0.28-0.422 0.66c-0.613 0.74-1.246 1.48-1.91 2.21s-1.326 1.43-2.009 2.080c-0.634 0.616-1.305 1.194-2.010 1.73-0.611 0.472-1.289 0.856-2.009 1.14-0.201 0.536-0.558 0.999-1.025 1.332s-1.023 0.52-1.598 0.538c-0.584 0.019-1.165-0.083-1.708-0.3-0.586-0.223-1.12-0.563-1.568-1-0.142-0.154-0.27-0.321-0.381-0.5-0.125-0.198-0.221-0.413-0.281-0.64-0.069-0.209-0.088-0.431-0.061-0.65 0.018-0.108 0.057-0.212 0.115-0.305s0.136-0.173 0.227-0.235c0.136-0.11 0.307-0.17 0.482-0.17 0.211 0 0.442 0 0.684 0s0.472 0 0.693 0.080l0.513 0.090c0.361 0 0.693 0 1.005 0 0.313 0.002 0.627-0.021 0.935-0.070 0.080-0.382 0.121-0.77 0.12-1.16v-1.070c0-0.69 0-1.38 0-2.080s-0.1-1.4-0.171-2.11c-0.922 0.992-1.898 1.933-2.924 2.82-1.065 0.91-2.010 1.7-2.854 2.36-0.362 0.28-0.523 0.32-0.503 0.13 0.061-0.258 0.181-0.498 0.352-0.7 0.176-0.231 0.328-0.479 0.452-0.74 0.126-0.257 0.237-0.521 0.332-0.79l0.241-0.68c0.061-0.178 0.168-0.337 0.312-0.46 0.332-0.33 0.884-1 1.668-1.86 0.938-1.16 1.776-2.398 2.502-3.7 0.047-0.085 0.12-0.153 0.209-0.195s0.188-0.054 0.284-0.035c0.246 0.034 0.483 0.119 0.693 0.25 0.232 0.141 0.443 0.309 0.633 0.5 0.151 0.123 0.262 0.286 0.322 0.47 0.231 1.35 0.442 2.74 0.633 4.19 0.189 1.416 0.221 2.847 0.1 4.27 0.541-0.274 1.046-0.609 1.507-1 0.522-0.42 1.005-0.85 1.528-1.28s1.005-0.84 1.437-1.22c0.387-0.33 0.812-0.612 1.266-0.84 0.282-0.12 0.533-0.22 0.764-0.3 0.265-0.088 0.514-0.22 0.733-0.39v-0.010z"></path>
</symbol>
<symbol id="icon-captain" viewBox="0 0 109 32">
<path d="M4.888 31.041c-1.81 0-3.066-0.368-3.786-1.115-0.815-1.044-1.201-2.358-1.080-3.675v-22.429c-0.038-0.521 0.036-1.044 0.217-1.534s0.465-0.936 0.834-1.307c0.704-0.653 1.638-1.001 2.599-0.97h8.204l1.080 5.818h-5.976c-0.37 0-0.555 0.194-0.555 0.601v18.23c0 0.407 0.185 0.601 0.555 0.601h5.976l-1.119 5.818-6.949-0.039zM21.092 27.162l-0.564 3.879h-6.277l5.625-31.030h6.657l5.606 31.030h-6.248l-0.564-3.879h-4.233zM21.773 22.236h2.92l-1.47-10.967-1.45 10.967zM46.113 0.010c0.51-0.039 1.021 0.033 1.5 0.21s0.913 0.456 1.273 0.817c0.642 0.763 0.972 1.74 0.925 2.735v14.856c0.003 0.555-0.062 1.109-0.195 1.648-0.126 0.488-0.37 0.937-0.711 1.309-0.382 0.395-0.852 0.694-1.372 0.873-0.692 0.232-1.42 0.34-2.151 0.32h-5.324v8.262h-6.19v-31.030h12.243zM40.060 5.45v12.189h3.095c0.253 0 0.418-0.048 0.487-0.145 0.087-0.149 0.125-0.323 0.107-0.495v-10.958c0-0.398-0.185-0.592-0.555-0.592h-3.134zM64.672 0.010l1.528 5.818h-4.146v25.212h-6.355v-25.212h-4.165l1.625-5.818h11.513zM71.339 27.162l-0.555 3.879h-6.277l5.586-31.030h6.666l5.625 31.030h-6.238l-0.555-3.879h-4.253zM72.040 22.313h2.92l-1.469-11.045-1.45 11.045zM84.127 0.010h6.228v31.030h-6.228v-31.030zM92.944 0.010h5.927l3.182 12.451v-12.451h6.404v31.030h-6.404l-3.348-12.965v12.965h-5.761v-31.030z"></path>
</symbol>
<symbol id="icon-artzo" viewBox="0 0 130 32">
<path d="M89.71 23.050c1.31 0.017 2.611-0.236 3.818-0.743 1.19-0.531 2.332-1.163 3.413-1.889l5.343 6.999c-0.845 0.784-1.804 1.438-2.843 1.941-1.064 0.506-2.176 0.904-3.32 1.187-1.207 0.302-2.435 0.512-3.672 0.63-1.267 0.114-2.552 0.176-3.891 0.176-1.352-0.001-2.702-0.070-4.046-0.206-1.328-0.134-2.584-0.31-3.766-0.547-1.104-0.211-2.195-0.483-3.268-0.816-0.877-0.275-1.731-0.62-2.552-1.032l9.638-19.303h-7.189v-8.95h22.067l-10.531 22.555h0.799zM119.009 12.532c-0.285-0.667-0.709-1.265-1.245-1.755-0.544-0.51-1.181-0.913-1.878-1.187-0.717-0.3-1.489-0.454-2.267-0.454s-1.549 0.154-2.266 0.454c-1.382 0.542-2.498 1.597-3.112 2.942-0.315 0.672-0.477 1.405-0.477 2.147s0.163 1.475 0.477 2.147c0.615 1.345 1.731 2.4 3.112 2.942 0.717 0.3 1.488 0.454 2.266 0.454s1.549-0.154 2.267-0.454c0.696-0.274 1.334-0.677 1.878-1.187 0.536-0.49 0.961-1.088 1.245-1.755 0.301-0.676 0.456-1.408 0.456-2.147s-0.156-1.471-0.456-2.147zM127.827 20.511c-0.795 1.762-1.922 3.357-3.32 4.697-1.429 1.36-3.11 2.433-4.948 3.159-3.892 1.517-8.216 1.517-12.108 0-3.667-1.456-6.62-4.273-8.237-7.855-0.807-1.81-1.224-3.769-1.224-5.75s0.417-3.939 1.224-5.75c0.793-1.76 1.921-3.352 3.32-4.686 1.432-1.342 3.099-2.412 4.917-3.159 3.885-1.555 8.223-1.555 12.108 0 1.827 0.742 3.501 1.813 4.938 3.159 1.403 1.332 2.531 2.924 3.32 4.686 0.808 1.81 1.224 3.769 1.224 5.75s-0.417 3.939-1.224 5.75h0.011zM68.193 9.445v19.613h-9.389v-19.613h-5.789v-8.95h20.915v8.95h-5.737zM42.184 9.59c-0.207-0.211-0.456-0.378-0.731-0.49s-0.57-0.166-0.867-0.16h-1.452v4.377h1.452c0.297 0.006 0.592-0.048 0.867-0.16s0.524-0.279 0.731-0.49c0.21-0.2 0.376-0.441 0.49-0.707s0.173-0.552 0.173-0.842-0.059-0.575-0.173-0.842c-0.114-0.266-0.281-0.507-0.49-0.707v0.021zM48.678 19.024l6.536 9.982h-10.084c-1.459-2.064-2.594-3.613-3.403-4.645-0.539-0.722-1.121-1.411-1.743-2.064-0.363-0.351-0.581-0.465-0.643-0.351-0.069 0.112-0.105 0.241-0.104 0.372v6.689h-9.337v-28.511h11.433c1.382 0.002 2.746 0.308 3.994 0.898 1.252 0.565 2.389 1.356 3.351 2.333 1.033 0.993 1.855 2.184 2.417 3.499 0.525 1.27 0.789 2.632 0.778 4.005-0.003 1.416-0.281 2.818-0.82 4.129-0.547 1.363-1.353 2.607-2.376 3.665zM14.379 11.572l-1.598 6.111h3.112l-1.515-6.111zM19.224 29.006l-0.903-3.272h-7.947l-0.892 3.272h-9.483l9.234-28.511h10.24l9.234 28.511h-9.482z"></path>
</symbol>
<symbol id="icon-paper" viewBox="0 0 24 32">
<path d="M20 0h-16c-1.061 0-2.078 0.421-2.828 1.172s-1.172 1.768-1.172 2.828v24c0 1.061 0.421 2.078 1.172 2.828s1.768 1.172 2.828 1.172h16c1.061 0 2.078-0.421 2.828-1.172s1.172-1.768 1.172-2.828v-24c0-1.061-0.421-2.078-1.172-2.828s-1.768-1.172-2.828-1.172v0zM13 22h-8c-0.265 0-0.52-0.105-0.707-0.293s-0.293-0.442-0.293-0.707 0.105-0.52 0.293-0.707c0.188-0.187 0.442-0.293 0.707-0.293h8c0.265 0 0.52 0.105 0.707 0.293s0.293 0.442 0.293 0.707-0.105 0.52-0.293 0.707c-0.188 0.187-0.442 0.293-0.707 0.293zM19 16h-14c-0.265 0-0.52-0.105-0.707-0.293s-0.293-0.442-0.293-0.707 0.105-0.52 0.293-0.707c0.188-0.187 0.442-0.293 0.707-0.293h14c0.265 0 0.52 0.105 0.707 0.293s0.293 0.442 0.293 0.707-0.105 0.52-0.293 0.707c-0.188 0.187-0.442 0.293-0.707 0.293zM19 10h-14c-0.265 0-0.52-0.105-0.707-0.293s-0.293-0.442-0.293-0.707 0.105-0.52 0.293-0.707c0.188-0.187 0.442-0.293 0.707-0.293h14c0.265 0 0.52 0.105 0.707 0.293s0.293 0.442 0.293 0.707-0.105 0.52-0.293 0.707c-0.188 0.187-0.442 0.293-0.707 0.293z"></path>
</symbol>
<symbol id="icon-lightning" viewBox="0 0 24 32">
<path d="M15.043 14h6.976c0.402-0.006 0.795 0.116 1.122 0.349s0.572 0.564 0.698 0.945c0.164 0.374 0.204 0.79 0.114 1.189s-0.306 0.757-0.615 1.024l-16.013 14c-0.341 0.3-0.775 0.474-1.228 0.495s-0.901-0.113-1.269-0.38c-0.368-0.267-0.633-0.651-0.754-1.089s-0.088-0.904 0.092-1.321l4.81-11.213h-7.030c-0.403-0.011-0.793-0.143-1.119-0.379s-0.574-0.565-0.71-0.943c-0.136-0.379-0.155-0.79-0.054-1.179s0.318-0.74 0.621-1.004l16.013-14c0.341-0.299 0.774-0.473 1.228-0.494s0.901 0.113 1.268 0.38c0.367 0.267 0.633 0.65 0.753 1.087s0.089 0.903-0.091 1.319l-4.812 11.213z"></path>
</symbol>
<symbol id="icon-worker" viewBox="0 0 28 32">
<path d="M14.118 20c1.96-0.003 3.851-0.717 5.319-2.006s2.409-3.065 2.648-4.994h-15.933c0.239 1.929 1.181 3.705 2.648 4.995s3.358 2.002 5.319 2.006zM5.546 11h17.143c0.133-0.001 0.261-0.054 0.356-0.147s0.148-0.22 0.149-0.353v-2c-0.001-0.132-0.054-0.259-0.149-0.352s-0.222-0.147-0.356-0.148h-0.504c0.001-1.376-0.408-2.722-1.174-3.869s-1.857-2.045-3.135-2.581l-1.742 3.45v-4c0-0.131-0.025-0.262-0.076-0.383s-0.125-0.232-0.219-0.325c-0.094-0.093-0.205-0.167-0.328-0.217s-0.254-0.076-0.386-0.075h-2.017c-0.133-0-0.264 0.025-0.386 0.075s-0.234 0.124-0.328 0.217c-0.094 0.093-0.168 0.203-0.219 0.325s-0.076 0.252-0.076 0.383v4l-1.74-3.453c-1.278 0.537-2.368 1.436-3.135 2.583s-1.176 2.494-1.176 3.87h-0.504c-0.133 0.001-0.261 0.054-0.355 0.148s-0.148 0.22-0.149 0.352v1.944c-0.005 0.070 0.004 0.14 0.026 0.206s0.059 0.127 0.106 0.179c0.047 0.052 0.104 0.094 0.168 0.123s0.133 0.046 0.204 0.048zM19.836 22h-11.434c-2.228 0.001-4.365 0.879-5.941 2.441s-2.461 3.682-2.461 5.892c0 0.442 0.177 0.866 0.492 1.179s0.743 0.488 1.188 0.488h24.875c0.446 0 0.873-0.176 1.189-0.488s0.492-0.737 0.492-1.179c0-1.094-0.216-2.178-0.638-3.189s-1.041-1.93-1.821-2.704c-0.78-0.774-1.706-1.388-2.726-1.806s-2.112-0.634-3.215-0.634z"></path>
</symbol>
<symbol id="icon-compass" viewBox="0 0 32 32">
<path d="M22 6c0.002 0.868-0.186 1.725-0.55 2.513l3.3 5.7c-1.499 1.603-3.41 2.763-5.525 3.35l-3.225-5.563h-0.056l-4.2 7.344c1.377 0.435 2.812 0.656 4.256 0.656 2.105 0.005 4.184-0.471 6.078-1.39s3.554-2.259 4.853-3.916c0.342-0.404 0.829-0.658 1.356-0.706s1.052 0.113 1.462 0.448c0.41 0.336 0.671 0.819 0.727 1.345s-0.097 1.054-0.426 1.469c-1.688 2.104-3.827 3.802-6.258 4.971s-5.094 1.776-7.792 1.78c-2.149 0.002-4.28-0.381-6.293-1.132l-3.541 6.113c-0.294 0.508-0.73 0.918-1.255 1.181l-3.463 1.731c-0.152 0.076-0.322 0.112-0.492 0.105s-0.336-0.059-0.481-0.148c-0.145-0.090-0.265-0.215-0.348-0.364s-0.127-0.317-0.127-0.487v-3.462c0.001-0.529 0.14-1.048 0.404-1.506l3.75-6.475c-0.8-0.704-1.537-1.476-2.204-2.307-0.332-0.415-0.488-0.944-0.432-1.472s0.317-1.014 0.728-1.351 0.939-0.498 1.468-0.448c0.529 0.050 1.017 0.306 1.358 0.714 0.338 0.472 0.719 0.911 1.138 1.313l4.34-7.493c-0.375-0.815-0.563-1.703-0.549-2.6s0.228-1.779 0.627-2.582c0.399-0.803 0.974-1.506 1.681-2.058s1.529-0.938 2.405-1.13c0.876-0.192 1.784-0.186 2.657 0.019s1.689 0.603 2.388 1.165c0.699 0.562 1.263 1.274 1.651 2.082s0.589 1.694 0.59 2.591zM16 8c0.396 0 0.782-0.117 1.111-0.337s0.585-0.532 0.737-0.898c0.151-0.365 0.191-0.768 0.114-1.155s-0.268-0.744-0.547-1.024c-0.28-0.28-0.636-0.47-1.024-0.547s-0.79-0.038-1.156 0.114c-0.365 0.151-0.678 0.408-0.898 0.737s-0.337 0.716-0.337 1.111c0 0.53 0.211 1.039 0.586 1.414s0.884 0.586 1.414 0.586zM23.256 24.619c2.041-0.779 3.936-1.897 5.606-3.306l2.732 4.719c0.266 0.457 0.406 0.977 0.406 1.506v3.462c0 0.171-0.043 0.339-0.127 0.488s-0.203 0.275-0.349 0.364c-0.145 0.090-0.311 0.141-0.482 0.148s-0.34-0.029-0.493-0.106l-3.463-1.732c-0.524-0.265-0.96-0.675-1.256-1.181l-2.575-4.362z"></path>
</symbol>
<symbol id="icon-colors" viewBox="0 0 32 32">
<path d="M0 2c0-0.53 0.211-1.039 0.586-1.414s0.884-0.586 1.414-0.586h8c0.53 0 1.039 0.211 1.414 0.586s0.586 0.884 0.586 1.414v24c0 1.591-0.632 3.117-1.757 4.243s-2.651 1.757-4.243 1.757c-1.591 0-3.117-0.632-4.243-1.757s-1.757-2.651-1.757-4.243v-24zM8 4h-4v4h4v-4zM4 16h4v-4h-4v4zM6 27.5c0.297 0 0.587-0.088 0.833-0.253s0.439-0.399 0.552-0.673c0.114-0.274 0.143-0.576 0.085-0.867s-0.201-0.558-0.411-0.768-0.477-0.353-0.768-0.41c-0.291-0.058-0.593-0.028-0.867 0.085s-0.508 0.306-0.673 0.552c-0.165 0.247-0.253 0.537-0.253 0.833-0 0.197 0.038 0.392 0.113 0.575s0.186 0.348 0.325 0.487c0.139 0.139 0.305 0.25 0.487 0.325s0.377 0.114 0.575 0.113zM14 26v-16.375l4.712-4.71c0.376-0.375 0.885-0.586 1.416-0.586s1.040 0.211 1.416 0.586l5.656 5.654c0.375 0.376 0.586 0.885 0.586 1.415s-0.211 1.040-0.586 1.416l-13.225 13.218c0.018-0.2 0.025-0.412 0.025-0.618zM23.425 20h6.575c0.53 0 1.039 0.211 1.414 0.586s0.586 0.884 0.586 1.414v8c0 0.53-0.211 1.039-0.586 1.414s-0.884 0.586-1.414 0.586h-18.575l12-12z"></path>
</symbol>
<symbol id="icon-IMAGE-2" viewBox="0 0 32 32">
<path d="M30.827 2.639c0.751 0.752 1.173 1.77 1.173 2.833s-0.422 2.081-1.173 2.833l-3.527 3.529-7.134-7.131 3.529-3.529c0.752-0.751 1.771-1.173 2.834-1.173s2.082 0.422 2.834 1.173l1.464 1.466zM2.809 22.064l15.941-15.947 7.134 7.13-15.95 15.942c-0.422 0.42-0.942 0.728-1.514 0.895l-6.506 1.858c-0.262 0.076-0.54 0.076-0.801-0.002s-0.495-0.229-0.673-0.436c-0.192-0.176-0.329-0.403-0.397-0.655s-0.063-0.517 0.015-0.766l1.86-6.507c0.162-0.573 0.469-1.094 0.891-1.514zM15.605 6.434l-9.135 9.135-5.47-5.475c-0.279-0.279-0.5-0.61-0.651-0.974s-0.229-0.754-0.229-1.149c0-0.394 0.078-0.785 0.229-1.149s0.372-0.695 0.651-0.974l4.885-4.885c0.279-0.279 0.609-0.5 0.974-0.651s0.755-0.229 1.149-0.229c0.394 0 0.785 0.078 1.149 0.229s0.695 0.372 0.974 0.651l1.239 1.237c-0.019 0.018-0.044 0.037-0.063 0.058l-4.006 4.005c-0.096 0.092-0.172 0.203-0.224 0.325s-0.080 0.253-0.081 0.386c-0.001 0.133 0.024 0.265 0.074 0.387s0.125 0.234 0.218 0.328c0.094 0.094 0.205 0.168 0.328 0.218s0.255 0.076 0.387 0.074c0.133-0.001 0.264-0.029 0.386-0.081s0.232-0.129 0.325-0.224l4.006-4.003c0.019-0.020-0.013-0.042 0.057-0.063l2.828 2.822zM28.387 19.223c-0.022 0.017-0.043 0.036-0.063 0.057l-4.005 4.004c-0.182 0.189-0.283 0.441-0.281 0.703s0.107 0.513 0.293 0.698c0.185 0.185 0.436 0.291 0.698 0.293s0.515-0.098 0.703-0.281l4.004-4.004c0.019-0.075-0.012-0.044 0.057-0.063l1.239 1.239c0.562 0.563 0.878 1.326 0.878 2.121s-0.316 1.558-0.878 2.121l-4.887 4.886c-0.563 0.562-1.325 0.878-2.121 0.878s-1.558-0.316-2.121-0.878l-5.475-5.468 9.135-9.135 2.822 2.828z"></path>
</symbol>
<symbol id="icon-heart" viewBox="0 0 32 32">
<path stroke-linejoin="round" stroke-linecap="butt" stroke-miterlimit="4" stroke-width="3.7647" d="M24.888 4.539c-0.875-0.363-1.813-0.55-2.761-0.55s-1.886 0.187-2.761 0.55c-0.875 0.363-1.67 0.896-2.339 1.567l-1.027 1.040-1.027-1.040c-0.669-0.671-1.464-1.204-2.339-1.567s-1.813-0.55-2.761-0.55c-0.948 0-1.886 0.187-2.761 0.55s-1.67 0.896-2.339 1.567c-2.827 2.827-3 7.6 0.56 11.227l10.667 10.667 10.667-10.667c3.56-3.627 3.387-8.4 0.56-11.227-0.669-0.671-1.464-1.204-2.339-1.567z"></path>
</symbol>
</defs>
</svg>
